<?xml version="1.0" encoding="utf-8"?>
<!-- Generator: Adobe Illustrator 22.1.0, SVG Export Plug-In . SVG Version: 6.00 Build 0)  -->
<svg version="1.1" id="Layer_1" xmlns="http://www.w3.org/2000/svg" xmlns:xlink="http://www.w3.org/1999/xlink" x="0px" y="0px"
	 viewBox="0 0 500 500" style="enable-background:new 0 0 500 500;" xml:space="preserve">
<style type="text/css">
	.st0{fill:#4F4F4E;stroke:#000000;stroke-miterlimit:10;}
	.st1{fill:none;stroke:#000000;stroke-miterlimit:10;}
	.st2{fill:url(#SVGID_1_);stroke:#000000;stroke-miterlimit:10;}
	.st3{stroke:#000000;stroke-miterlimit:10;}
	.st4{fill:none;stroke:#000000;stroke-width:2;stroke-miterlimit:10;}
</style>
<path class="st0" d="M419,418.5l-167.6,77.4c-0.5,0.2-1.1,0.2-1.7,0L78.6,418.5c-0.7-0.3-1.1-1-1.2-1.8L64.9,55.8
	c0-0.9,0.6-1.8,1.5-2L250.1,3.9c0.3-0.1,0.7-0.1,1,0l185.7,50c0.9,0.2,1.5,1.1,1.5,2l-18.1,360.8C420.2,417.5,419.7,418.1,419,418.5
	z"/>
<path class="st1" d="M435.8,53.9"/>
<path class="st1" d="M66.5,54.1"/>
<path class="st1" d="M420.1,418.2"/>
<path class="st1" d="M77.5,418.2"/>
<linearGradient id="SVGID_1_" gradientUnits="userSpaceOnUse" x1="249.7117" y1="28.7416" x2="249.1666" y2="471.6683">
	<stop  offset="0" style="stop-color:#FFFFFF"/>
	<stop  offset="0.2629" style="stop-color:#91A5B4"/>
	<stop  offset="0.3613" style="stop-color:#668397"/>
	<stop  offset="0.5999" style="stop-color:#023253"/>
	<stop  offset="0.9863" style="stop-color:#003152"/>
	<stop  offset="1" style="stop-color:#003152"/>
</linearGradient>
<path class="st2" d="M397.8,403.2l-147.8,68.2c-0.5,0.2-1.1,0.2-1.7,0L97.2,403.1c-0.7-0.3-1.1-1-1.2-1.7L83.5,75.3
	c0-0.9,0.6-1.8,1.5-2l163.7-44.5c0.3-0.1,0.7-0.1,1,0l164.6,44.3c0.9,0.2,1.5,1.1,1.5,2L399,401.5
	C398.9,402.3,398.5,402.9,397.8,403.2z"/>
<g>
	<path class="st3" d="M221.3,293h-66.7c-0.6,0-1-0.4-1-1V160.2c0-0.6,0.4-1,1-1h66.7c0.6,0,1,0.4,1,1V292
		C222.3,292.5,221.8,293,221.3,293z"/>
	<path class="st3" d="M341.2,293h-66.7c-0.6,0-1-0.4-1-1V160.2c0-0.6,0.4-1,1-1h66.7c0.6,0,1,0.4,1,1V292
		C342.2,292.5,341.8,293,341.2,293z"/>
	<path class="st3" d="M163.9,162.5h-9.3c-0.6,0-1-0.4-1-1v-11.9c0-0.6,0.4-1,1-1h9.3c0.6,0,1,0.4,1,1v11.9
		C164.9,162.1,164.4,162.5,163.9,162.5z"/>
	<path class="st3" d="M183.1,162.5h-9.3c-0.6,0-1-0.4-1-1v-11.9c0-0.6,0.4-1,1-1h9.3c0.6,0,1,0.4,1,1v11.9
		C184.1,162.1,183.6,162.5,183.1,162.5z"/>
	<path class="st3" d="M202.3,162.5H193c-0.6,0-1-0.4-1-1v-11.9c0-0.6,0.4-1,1-1h9.3c0.6,0,1,0.4,1,1v11.9
		C203.3,162.1,202.8,162.5,202.3,162.5z"/>
	<path class="st3" d="M221.3,162.5H212c-0.6,0-1-0.4-1-1v-11.9c0-0.6,0.4-1,1-1h9.3c0.6,0,1,0.4,1,1v11.9
		C222.3,162.1,221.8,162.5,221.3,162.5z"/>
	<path class="st3" d="M283.8,162.5h-9.3c-0.6,0-1-0.4-1-1v-11.9c0-0.6,0.4-1,1-1h9.3c0.6,0,1,0.4,1,1v11.9
		C284.8,162.1,284.4,162.5,283.8,162.5z"/>
	<path class="st3" d="M303,162.5h-9.3c-0.6,0-1-0.4-1-1v-11.9c0-0.6,0.4-1,1-1h9.3c0.6,0,1,0.4,1,1v11.9
		C304,162.1,303.6,162.5,303,162.5z"/>
	<path class="st3" d="M322.2,162.5H313c-0.6,0-1-0.4-1-1v-11.9c0-0.6,0.4-1,1-1h9.3c0.6,0,1,0.4,1,1v11.9
		C323.2,162.1,322.8,162.5,322.2,162.5z"/>
	<path class="st3" d="M341.2,162.5H332c-0.6,0-1-0.4-1-1v-11.9c0-0.6,0.4-1,1-1h9.3c0.6,0,1,0.4,1,1v11.9
		C342.2,162.1,341.8,162.5,341.2,162.5z"/>
	<path class="st3" d="M243.8,197.8h-6.3c-0.6,0-1-0.4-1-1v-8.3c0-0.6,0.4-1,1-1h6.3c0.6,0,1,0.4,1,1v8.3
		C244.8,197.4,244.3,197.8,243.8,197.8z"/>
	<path class="st3" d="M259.2,197.8h-6.3c-0.6,0-1-0.4-1-1v-8.3c0-0.6,0.4-1,1-1h6.3c0.6,0,1,0.4,1,1v8.3
		C260.2,197.4,259.7,197.8,259.2,197.8z"/>
	<path class="st3" d="M274.5,197.8h-7.6c-0.6,0-1-0.4-1-1v-8.3c0-0.6,0.4-1,1-1h7.6c0.6,0,1,0.4,1,1v8.3
		C275.5,197.4,275.1,197.8,274.5,197.8z"/>
	<rect x="220.2" y="194.8" class="st3" width="55.8" height="17.2"/>
	<path class="st4" d="M221,236.7c0-13.6,12.7-24.7,27-24.7"/>
	<path class="st4" d="M274.4,236.7c0-13.6-12.2-24.7-26.4-24.7"/>
	<polygon class="st3" points="246,210.2 221.3,221.7 221,210.2 	"/>
	<polygon class="st3" points="229.3,216.1 224.1,226.3 221,222.6 	"/>
	<polygon class="st3" points="251.2,211.2 276,222.6 276.2,211.2 	"/>
	<polygon class="st3" points="267.9,217 273.2,227.3 276.2,223.5 	"/>
	<path class="st3" d="M229.6,197.8h-6.3c-0.6,0-1-0.4-1-1v-8.3c0-0.6,0.4-1,1-1h6.3c0.6,0,1,0.4,1,1v8.3
		C230.6,197.4,230.1,197.8,229.6,197.8z"/>
</g>
</svg>
