<?xml version="1.0" encoding="utf-8"?>
<!-- Generator: Adobe Illustrator 22.1.0, SVG Export Plug-In . SVG Version: 6.00 Build 0)  -->
<svg version="1.1" id="Layer_1" xmlns="http://www.w3.org/2000/svg" xmlns:xlink="http://www.w3.org/1999/xlink" x="0px" y="0px"
	 viewBox="0 0 500 500" style="enable-background:new 0 0 500 500;" xml:space="preserve">
<style type="text/css">
	.st0{fill:#2D2929;}
	.st1{fill:url(#SVGID_1_);}
	.st2{fill:none;stroke:#000000;stroke-miterlimit:10;}
	.st3{fill:none;stroke:#FFFFFF;stroke-width:0.75;stroke-linecap:round;stroke-miterlimit:10;}
	.st4{fill:#FFFFFF;stroke:#FFFFFF;stroke-width:0.75;stroke-linecap:round;stroke-miterlimit:10;}
	.st5{fill:none;stroke:#000000;stroke-linecap:round;stroke-miterlimit:10;}
</style>
<path class="st0" d="M276.7,491.2c8.6-2.5,16.6-4.9,24.5-7.9s14.8-5.4,22.5-9c7-3.2,15.3-7,22-10.4c6.9-3.5,12.8-6.6,19.6-10.7
	c14.1-8.6,28.2-16.9,41-27.6c9.3-7.7,22.7-20,30.3-28V2l-7.6,4.1c-3.1,1.5-5.3,2.7-8,4.1c-5.1,2.7-10.1,4.5-15.8,7.5
	c-6.1,3.1-13.4,5.5-20,8c-5.9,2.4-12.1,4.6-18.3,6.2c-6.3,1.7-12.7,3.5-19,5.4c-12.2,3.7-25.6,5.6-38.3,7.6
	c-10.7,1.7-22.8,2.5-34.5,3.4c-3.7,0.3-4.2,0.7-7.5,0.3c-3-0.4-7.2,0-10.1,0.3c-5.9,0.3-14.9,0.3-20.8,0
	c-12.2-0.7-21.1-1.1-33.2-3.1c-6.3-1-12.8-1.4-19-2.7c-5.5-1.1-12-1.8-17.5-3.2c-12-3.2-24.9-5.9-37-9.3c-11.7-3.2-23.2-8-34.8-11.7
	c-5.5-1.7-11.4-4.2-16.6-6.8c-4.2-2-7.9-4.5-12.4-5.6c-1-0.3-2.7-1.1-3.4-1.7L57.5,2v398.7v-3.1C68.1,409,82.4,422,94.7,430.8
	c12.1,9,24.8,16.9,37.7,24.5c26.6,15.8,53.4,25.5,82.4,35.1c3.2,1.1,3.2,1.1,7.3,2l24.4,5.4C246.6,497.7,276.3,491.4,276.7,491.2z"
	/>
<linearGradient id="SVGID_1_" gradientUnits="userSpaceOnUse" x1="-39.8104" y1="154.128" x2="406.7754" y2="154.128" gradientTransform="matrix(-1.346900e-10 1 1 1.346900e-10 92.9632 69.5444)">
	<stop  offset="5.098027e-02" style="stop-color:#FFFFFF"/>
	<stop  offset="0.1242" style="stop-color:#CFE3D9"/>
	<stop  offset="0.2091" style="stop-color:#9FC6B4"/>
	<stop  offset="0.299" style="stop-color:#74AD92"/>
	<stop  offset="0.3923" style="stop-color:#509876"/>
	<stop  offset="0.4898" style="stop-color:#33865F"/>
	<stop  offset="0.5929" style="stop-color:#1C794D"/>
	<stop  offset="0.7044" style="stop-color:#0C6F41"/>
	<stop  offset="0.83" style="stop-color:#036A39"/>
	<stop  offset="1" style="stop-color:#006837"/>
</linearGradient>
<path class="st1" d="M391,43.1c-10.3,4.9-20.7,8.9-31.4,12.1c-9.3,3-13.7,4.8-23.4,6.8c-11.3,2.4-25.6,6.1-36.7,7
	c-12.4,1.1-26.6,2.8-38.9,3c-12.2,0.1-24.8,0.1-36.9-1.1c-12.2-1.3-27.5-3.4-39.6-5.2c-12.8-1.8-24.4-5.6-36.6-8.4
	c-10.8-2.5-23.8-7.3-34.1-11.1c-10.4-3.7-19.4-7.7-30.6-13c-1.8-0.8-3.1-1.3-4.5-2.3l-2.1-1.1l0.6,356.1c3.1,2,6.1,7.3,9,10
	c4.2,3.9,8.2,7.7,12.5,11.7c1.7,1.7,4.2,3,5.8,4.6c3,0.7,6.3,4.1,9.3,6.8c0.6,0.7,2.5,1.1,3.1,1.8c1.3,1.7,2.8,1.7,4.2,3.5
	c2.8,1.7,3.2,0.8,6.1,3.4c1.1,1,2.7,1.3,3.4,2.7c1.3-0.1,1.8,1,3.4,1.7c0.7,0.3,2.3,1.4,2.8,1.7c1,0.4,3.9,2,4.6,2.7
	c5.1,4.1,6.9,3.8,12.2,6.8c3.4,1.8,7.9,3.9,11.3,5.8c1.1-0.4,2.5,1.3,3.7,1.7c3.5,1.4,2,0.8,5.5,2.5c0.7-0.1,1.4,1.3,2.3,1.1
	c3.1,0.7,3.2,1.5,5.9,2.5c0.7,0.3,1.5,0.6,2.3,0.8c3,1,4.8,1.7,7.5,3c15.6,5.2,27.3,10.4,43.6,13.2l11.8,2.5
	c15.6-3.4,32.5-7.6,45.1-12c16.5-5.8,25.6-9.4,47.2-20.6c15.1-7.7,29.4-16.8,43.2-26.8c6.9-4.9,12.7-9.7,19-15.2
	c2.3-2,7-5.4,8.4-7.9c1.8-3.2,5.9-7,7.7-8.2V29.7l-11.5,6.2C401.2,38.9,396.1,40.9,391,43.1z"/>
<line class="st2" x1="102.6" y1="462.8" x2="102.6" y2="462.8"/>
<g>
	<polygon points="363.6,236.1 243.5,264.1 316.9,184.9 387.7,184.9 	"/>
	<polygon points="316.9,184.9 238,213.6 238,158.1 302.1,171.7 	"/>
	<polygon points="222.5,390.4 164.5,237.5 263.4,232 	"/>
	<polygon points="196.1,373.4 165.6,258.2 237.7,261.8 	"/>
	<polygon points="171.4,340 135.4,226.6 207.6,226.6 	"/>
	<polygon points="94.8,262.3 179.3,178.3 212.4,242.5 	"/>
	<polygon points="99.3,229.9 183.4,163.2 206.5,223.9 	"/>
	<polygon points="167.6,124.3 268.7,173.1 186.5,229.9 	"/>
	<polygon points="308.4,235.4 250.8,257.4 194.2,232.8 195.4,186.2 252.9,164 316.9,184.9 	"/>
	<g>
		<g>
			<line class="st3" x1="265.3" y1="177.3" x2="296.2" y2="186.7"/>
			<path class="st4" d="M265.3,177.3c3,7.3,6.8,14.1,17.5,15.8"/>
			<path class="st4" d="M282.9,193.1c12.8,0.6,12.4-4.2,13.2-6.3"/>
		</g>
		<polygon class="st4" points="294.9,186.7 282.5,192.8 267,178.4 		"/>
	</g>
</g>
<g>
	<line class="st5" x1="436.5" y1="2.1" x2="436.5" y2="397.8"/>
	<g>
		<path class="st5" d="M57.2,2.1c0,0,189.6,105.6,379.3,0"/>
		<line class="st5" x1="57.2" y1="2.1" x2="57.2" y2="397.8"/>
		<path class="st2" d="M57.2,397.8c33.4,38,110.7,86.7,189.6,100.2"/>
		<path class="st5" d="M436.5,397.8c-33.4,38-110.7,86.7-189.6,100.2"/>
	</g>
</g>
<g>
	<line class="st5" x1="417.5" y1="29.9" x2="417.5" y2="385.9"/>
	<g>
		<path class="st5" d="M76.2,29.9c0,0,170.6,95,341.4,0"/>
		<line class="st5" x1="76.2" y1="29.9" x2="76.2" y2="385.9"/>
		<path class="st2" d="M76.2,385.9c30,34.2,99.5,78.1,170.6,90.2"/>
		<path class="st5" d="M417.5,385.9c-30,34.2-99.5,78.1-170.6,90.2"/>
	</g>
</g>
</svg>
