<?xml version="1.0" encoding="utf-8"?>
<!-- Generator: Adobe Illustrator 22.1.0, SVG Export Plug-In . SVG Version: 6.00 Build 0)  -->
<svg version="1.1" id="Layer_1" xmlns="http://www.w3.org/2000/svg" xmlns:xlink="http://www.w3.org/1999/xlink" x="0px" y="0px"
	 viewBox="0 0 500 500" style="enable-background:new 0 0 500 500;" xml:space="preserve">
<style type="text/css">
	.st0{fill:#232121;}
	.st1{fill:url(#SVGID_1_);}
	.st2{fill:none;stroke:#000000;stroke-linecap:round;stroke-miterlimit:10;}
	.st3{fill:none;stroke:#000000;stroke-miterlimit:10;}
	.st4{stroke:#000000;stroke-width:0.25;stroke-miterlimit:10;}
</style>
<path class="st0" d="M302.1,454.9c15.8-13.7,26.8-21.7,42.2-36.8c7.5-7.4,12.4-11.5,19.2-19.3c6.4-7.4,15.2-17.3,20.8-25.3
	c11.1-15.7,19.2-30.1,26.1-47.9c7.3-18.9,12.1-36.3,15.5-56.4c8.1-48.4,5.3-26.2,10.3-115.2l1-74.8c-10.6,1-22.2,1-32.7,0.6
	c-15-0.6-42.6-5.1-57.9-11c-32.9-12.6-41.7-16.8-71.4-41c-1.1-0.9-23.1-24.3-23.8-25.3l0,0c-0.1,2.7-25.6,27.2-28.4,29.2
	c-35.5,25.7-42.8,29.2-73.2,39.4C120,81,94.6,81.1,64.4,80.3l1.7,93.1c1.5,27.9,2.8,55.7,9.3,94.9c3.6,21.3,6.6,35.9,15.3,56.6
	c4.7,11.2,7.8,19.6,14,29.5c6.3,9.9,11.9,19.5,19.5,28.6c7.4,8.9,21.3,24.3,29.2,31.6c10,9.3,34.4,30.8,45,39.1
	c18.6,14.5,33.4,27.5,52.3,41.5l24.9-19.6C282.5,469.3,295,461.1,302.1,454.9z"/>
<linearGradient id="SVGID_1_" gradientUnits="userSpaceOnUse" x1="250.9498" y1="29.6312" x2="249.9225" y2="473.1357">
	<stop  offset="3.480097e-03" style="stop-color:#006837"/>
	<stop  offset="0.1863" style="stop-color:#467430"/>
	<stop  offset="0.3691" style="stop-color:#857F2A"/>
	<stop  offset="0.535" style="stop-color:#B68825"/>
	<stop  offset="0.6796" style="stop-color:#D98E21"/>
	<stop  offset="0.7975" style="stop-color:#EF921F"/>
	<stop  offset="0.8739" style="stop-color:#F7931E"/>
</linearGradient>
<path class="st1" d="M295.5,436.5c14.2-12.3,24.8-19.7,38.6-33.3c6.8-6.6,11.4-10.5,17.5-17.6c5.8-6.7,13.3-15.1,18.4-22.3
	c10-14.1,17.4-27.1,23.6-43.2c6.6-17,10.2-27.1,13.6-48.5c7.1-44.4,5.9-25.7,10.4-105.8l0.9-67.3c-9.5,0.9-20,0.9-29.4,0.5
	c-13.5-0.5-38.3-4.6-52.1-9.9c-29.6-11.3-37.5-15.1-64.3-36.9c-1-0.8-20.8-21.8-21.5-22.7l0,0c-0.1,2.4-27.4,27.4-30,29.2
	c-31.4,22-33,22.4-61.6,31.7c-26.6,8.6-49.4,9.9-76.7,9.1l1.5,83.8c1.4,25.1,2.5,50.1,8.4,85.4c3.2,19.2,6,32.3,13.8,50.9
	c4.2,10,7,17.7,12.6,26.6c5.6,8.9,10.7,17.6,17.5,25.7c6.6,8,19.2,21.8,26.3,28.5c9,8.3,31,27.7,40.5,35.2
	c16.8,13.1,30.5,23.8,46.5,37.4l21.8-17.9C278.1,449.6,289.1,442,295.5,436.5z"/>
<path class="st2" d="M499.2,374.1"/>
<path class="st3" d="M63.3,393.6"/>
<path class="st2" d="M438.3,393.6"/>
<path class="st2" d="M64.4,80.3c0,0,113.3,14.5,187-77.8"/>
<path class="st2" d="M64.4,80.3c0,272.4,30.4,292.1,186.4,415"/>
<path class="st2" d="M437.2,79.1c0,272.4-30.4,293.2-186.4,416.1"/>
<path class="st2" d="M437.2,79.1c0,0-112.2,15.7-185.9-76.7"/>
<path class="st2" d="M82.5,99c0,0,102,13.1,168.3-70"/>
<path class="st2" d="M81.5,29"/>
<path class="st3" d="M81.5,381"/>
<path class="st2" d="M419,381"/>
<path class="st2" d="M419,29"/>
<path class="st2" d="M82.5,99c0,245.1,27.4,262.9,167.8,373.5"/>
<path class="st2" d="M418,98c0,245.1-27.4,263.9-167.8,374.5"/>
<path class="st2" d="M418,98c0,0-101,14.1-167.3-69"/>
<g>
	<path class="st4" d="M285.9,158.1c8.8,17.5-19,35.1-19,35.1h-16c0,0,0-17.5,0-35.1s0-26.3,0-26.3
		C259.6,149.3,277.1,140.5,285.9,158.1z"/>
	<path class="st4" d="M215.7,158.1c-8.8,17.5,19,35.1,19,35.1h16c0,0,0-17.5,0-35.1s0-26.3,0-26.3
		C242,149.3,224.5,140.5,215.7,158.1z"/>
	<path class="st4" d="M188.2,184.6c19.4-2.9,27.5,28.9,27.5,28.9l-5,15.2c0,0-16.7-5.4-33.4-10.8c-16.7-5.4-25-8.1-25-8.1
		C171.8,206.9,168.8,187.5,188.2,184.6z"/>
	<path class="st4" d="M166.6,251.3c14,13.8,39.2-7.3,39.2-7.3l5-15.2c0,0-16.7-5.4-33.4-10.8c-16.7-5.4-25-8.1-25-8.1
		C166.3,223.6,152.6,237.5,166.6,251.3z"/>
	<path class="st4" d="M175.9,280.6c3.2-19.3,36-17.2,36-17.2l13,9.4c0,0-10.3,14.2-20.6,28.4s-15.5,21.3-15.5,21.3
		C192,303.1,172.7,299.9,175.9,280.6z"/>
	<path class="st4" d="M232.6,321.8c17.4-9,5.2-39.6,5.2-39.6l-13-9.4c0,0-10.3,14.2-20.6,28.4s-15.5,21.3-15.5,21.3
		C206.2,313.4,215.2,330.8,232.6,321.8z"/>
	<path class="st4" d="M268.9,321.8c-17.4-9-5.2-39.6-5.2-39.6l13-9.4c0,0,10.3,14.2,20.6,28.4c10.3,14.2,15.5,21.3,15.5,21.3
		C295.4,313.4,286.3,330.8,268.9,321.8z"/>
	<path class="st4" d="M325.7,280.6c-3.2-19.3-36-17.2-36-17.2l-13,9.4c0,0,10.3,14.2,20.6,28.4c10.3,14.2,15.5,21.3,15.5,21.3
		C309.5,303.1,328.9,299.9,325.7,280.6z"/>
	<path class="st4" d="M333.1,251.3c-14,13.8-39.2-7.3-39.2-7.3l-5-15.2c0,0,16.7-5.4,33.4-10.8c16.7-5.4,25-8.1,25-8.1
		C333.3,223.6,347,237.5,333.1,251.3z"/>
	<path class="st4" d="M311.4,184.6c-19.4-2.9-27.5,28.9-27.5,28.9l5,15.2c0,0,16.7-5.4,33.4-10.8c16.7-5.4,25-8.1,25-8.1
		C327.9,206.9,330.8,187.5,311.4,184.6z"/>
	<path class="st4" d="M250.8,189.6c-26.2,0-47.4,21.2-47.4,47.4c0,26.2,21.2,47.4,47.4,47.4c26.2,0,47.4-21.2,47.4-47.4
		C298.1,210.8,276.9,189.6,250.8,189.6z M250.7,253.9c-9.6,0-16.6-7.8-17.1-17.1c-0.4-9.2,8.1-17.1,17.1-17.1
		c9.6,0,16.6,7.8,17.1,17.1C268.1,246.1,259.6,253.9,250.7,253.9z"/>
</g>
</svg>
