<?xml version="1.0" encoding="utf-8"?>
<!-- Generator: Adobe Illustrator 22.1.0, SVG Export Plug-In . SVG Version: 6.00 Build 0)  -->
<svg version="1.1" id="Layer_1" xmlns="http://www.w3.org/2000/svg" xmlns:xlink="http://www.w3.org/1999/xlink" x="0px" y="0px"
	 viewBox="0 0 500 500" style="enable-background:new 0 0 500 500;" xml:space="preserve">
<style type="text/css">
	.st0{fill:#33302D;}
	.st1{fill:url(#SVGID_1_);}
	.st2{fill:none;stroke:#000000;stroke-miterlimit:10;}
	.st3{fill:none;stroke:#000000;stroke-linecap:round;stroke-miterlimit:10;}
	.st4{stroke:#000000;stroke-width:0.5;stroke-miterlimit:10;}
	.st5{stroke:#000000;stroke-miterlimit:10;}
	.st6{stroke:#000000;stroke-width:0.25;stroke-miterlimit:10;}
	.st7{stroke:#000000;stroke-width:0.75;stroke-miterlimit:10;}
</style>
<rect x="59.1" y="2.5" class="st0" width="385.2" height="56.6"/>
<path class="st0" d="M280.4,486c8.2-3.6,17.3-7.7,25-11.3c8-3.9,13.4-6.6,21.4-10.3c7.2-3.3,14.4-7.4,21.2-10.9
	c7-3.6,15.3-7.7,22-11.9c14.3-8.7,26.2-15,40.9-24c11-6.7,24.2-14.9,33.3-21.7V3.1h-7.7c-3.1,1.6-4.7,1.7-7.3,3.1
	c-5.1,2.7-10.7,2.4-16.6,5.4c-6.1,3.1-13.9,4-20.4,6.6c-6,2.4-12.3,4.7-18.6,6.3c-6.4,1.7-12.9,3.6-19.3,5.4
	c-12.4,3.7-26,5.7-38.9,7.7c-10.9,1.7-23.2,2.6-35,3.4c-3.7,0.3-4.3,0.7-7.6,0.3c-3-0.4-7.3,0-10.3,0.3c-6,0.3-15.2,0.3-21.2,0
	C229,41,220,40.5,207.7,38.5c-6.4-1-13-1.4-19.3-2.7c-5.6-1.1-12.2-1.9-17.7-3.3c-12.2-3.3-25.3-6-37.6-9.4
	c-11.9-3.3-23.6-8.2-35.3-11.9c-5.6-1.7-11-2.1-17-4c-4.6-1.4-6.3-1-10.9-2.1c-1-0.3-4.4-0.7-5.1-1.1l-5.6-1.4v393.4l0,0
	c13.4,9.6,30.5,20.3,43.8,28.2c13.6,8,25.7,15.3,39.2,22.5c28.3,14.9,50.8,26.2,79.2,38.8c3.6,1.6,8.4,3.9,12.7,5.4l17.9,7.3
	C252,497.9,280,486.3,280.4,486z"/>
<linearGradient id="SVGID_1_" gradientUnits="userSpaceOnUse" x1="-47.3492" y1="158.8798" x2="406.0021" y2="158.8798" gradientTransform="matrix(-1.346900e-10 1 1 1.346900e-10 92.9632 69.5444)">
	<stop  offset="7.151344e-02" style="stop-color:#FFFF98"/>
	<stop  offset="0.4248" style="stop-color:#FFAB00"/>
	<stop  offset="0.5259" style="stop-color:#F7931E"/>
	<stop  offset="0.8722" style="stop-color:#F79B00"/>
	<stop  offset="1" style="stop-color:#F98600"/>
	<stop  offset="1" style="stop-color:#FBD820"/>
	<stop  offset="1" style="stop-color:#FCEE21"/>
</linearGradient>
<path class="st1" d="M337.4,436.9c15.3-7.9,30.9-16.9,46.2-26c7.4-4.4,16.4-10.3,23.7-15c2.6-1.6,6.7-4.4,9.2-6.1
	c4.4-3,6.9-4.7,8.7-5.9V22.2h-12.3c-5.6,0-10.3,0-15.9,0c-12,0.1-16.4-0.1-27.9,0c-10,0.1-14.6-0.1-24.7,0c-11.9,0.1-24.7,0-36.5,0
	c-12.7,0-30,0-42.5,0.1c-12.4,0.1-15.6-0.1-28-0.1c-11.9,0-27.7,0-40.5,0.1c-13.3,0.1-26.9,0.1-39.6,0c-11-0.1-21.9,0-33,0
	c-11.3,0-21-0.1-37.2,0c-2.1,0-3.1-0.1-6.1,0l-2.4-0.1l0.6,361.6c3.1,2,8.3,5.3,11.2,8c4.3,4,9.2,4.7,13.4,8.7
	c1.7,1.7,5,2.4,6.7,4.3c3,0.7,6.9,3.6,9.9,6.1c0.6,0.7,4.3,2.1,4.9,2.9c1.3,1.7,4.7,1.7,6.1,3.6c2.9,1.7,1.1,0.7,4.7,2.7
	c1.3,0.9,3.1,1.9,5.1,2.9c3.1,1.9,2.9,1.7,4.3,2.4c0.7,0.3,2.3,1.3,3,1.7c1,0.4,3.6,1.6,4.3,2.3c6.4,3.7,4.9,2.6,10.3,5.4
	c3.4,1.9,6.6,3.3,10.2,5.1c1.1-0.4,3.6,1.9,4.7,2.4c3.6,1.4,1.1,0.7,4.9,2.4c0.7-0.1,3,1.9,3.7,1.9c3.3,1.6,3,1.9,5.7,2.7
	c0.7,0.3,1.9,1,2.6,1.1c3,1,3.1,1.4,5.9,2.7c16,6,23,11.6,38.8,16.9l12.4,5.3c15.2-6.1,32-13.3,44-18.9"/>
<line class="st2" x1="105.1" y1="462" x2="105.1" y2="462"/>
<g>
	<line class="st3" x1="444.3" y1="3.1" x2="444.3" y2="395.9"/>
	<g>
		<line class="st3" x1="59.1" y1="3.1" x2="59.1" y2="395.9"/>
		<path class="st2" d="M251.7,497.7"/>
		<path class="st2" d="M59.1,395.9"/>
		<path class="st3" d="M251.7,497.7"/>
		<path class="st3" d="M444.3,395.9"/>
	</g>
</g>
<g>
	<line class="st3" x1="425" y1="22.2" x2="425" y2="383.9"/>
	<g>
		<path class="st3" d="M425,22.2"/>
		<path class="st3" d="M78.4,22.2"/>
		<line class="st3" x1="78.4" y1="22.2" x2="78.4" y2="383.9"/>
		<path class="st3" d="M78.4,383.9c53.6,36.8,101.5,62.9,173.3,91.7"/>
		<path class="st3" d="M251.7,475.5"/>
		<path class="st3" d="M425,383.9"/>
	</g>
</g>
<line class="st2" x1="78.4" y1="22.2" x2="425" y2="22.2"/>
<path class="st3" d="M59.1,395.9c53.6,36.8,120.8,73.4,192.6,102.1"/>
<path class="st3" d="M425,383.9c-53.6,36.8-101.5,62.9-173.3,91.7"/>
<path class="st3" d="M444.3,395.9c-53.6,36.8-120.8,73.4-192.6,102.1"/>
<line class="st3" x1="59.1" y1="2.5" x2="444.3" y2="2.5"/>
<path d="M174.9,195.6l-12.7-25.3c-0.1-0.3-0.1-0.6-0.1-0.9l12.9-76.8V195.6z"/>
<path d="M174.9,195.6l-20.7-6.6c-0.3-0.1-0.4,12.4,7.9,6.6l-14.7-89.2L174.9,195.6z"/>
<path d="M174.9,195.6l-5,10c-0.3,0-0.6,0-0.9-0.1l-69.2-35.6L174.9,195.6z"/>
<polygon points="174.9,221.3 162,195.6 175.1,192.1 187.8,221.3 "/>
<polygon points="207.1,223.2 174.9,221.3 181.9,208.4 213.5,212 "/>
<path d="M218.8,218l-11.4,4.7c-0.6-0.1-0.7-0.4-0.9-0.7l-5.9-52.2L218.8,218z"/>
<polygon points="226.4,247 200.6,221.3 213.5,208.4 252.1,259.9 "/>
<path d="M329.3,195.6l12.7-25.3c0.1-0.3,0.1-0.6,0.1-0.9l-12.9-76.8V195.6z"/>
<path d="M329.3,195.6l20.7-6.6c0.3-0.1,0.4,12.4-7.9,6.6l14.7-89.2L329.3,195.6z"/>
<path d="M329.3,195.6l5,10c0.3,0,0.6,0,0.9-0.1l69.2-35.6L329.3,195.6z"/>
<polygon points="329.3,221.3 342.2,195.6 329.2,192.1 316.5,221.3 "/>
<polygon points="297.2,223.2 329.3,221.3 322.3,208.4 290.7,212 "/>
<path d="M285.4,218l11.4,4.7c0.6-0.1,0.7-0.4,0.9-0.7l5.9-52.2L285.4,218z"/>
<polygon points="277.9,247 303.6,221.3 290.7,208.4 252.1,259.9 "/>
<polygon class="st4" points="252.1,259.9 226.4,247 252.1,234.2 277.9,247 "/>
<polygon class="st5" points="252.1,311.4 213.5,272.8 226.4,247 252.1,259.9 "/>
<polygon class="st6" points="252.1,337.1 226.4,298.5 226.4,272.8 252.1,285.6 "/>
<polygon points="252.1,350 239.3,324.3 252.1,311.4 265,324.3 "/>
<polygon class="st7" points="224.7,275.8 207.9,255.8 226.4,257.3 244.8,259 "/>
<polygon class="st4" points="252.1,311.4 290.7,272.8 277.9,247 252.1,259.9 "/>
<polygon class="st6" points="252.1,337.1 277.9,298.5 277.9,272.8 252.1,285.6 "/>
<polygon points="252.1,350 265,324.3 252.1,311.4 239.3,324.3 "/>
<polygon class="st7" points="279.6,275.8 296.3,255.8 277.9,257.3 259.4,259 "/>
</svg>
