<?xml version="1.0" encoding="utf-8"?>
<!-- Generator: Adobe Illustrator 22.1.0, SVG Export Plug-In . SVG Version: 6.00 Build 0)  -->
<svg version="1.1" id="Layer_1" xmlns="http://www.w3.org/2000/svg" xmlns:xlink="http://www.w3.org/1999/xlink" x="0px" y="0px"
	 viewBox="0 0 500 500" style="enable-background:new 0 0 500 500;" xml:space="preserve">
<style type="text/css">
	.st0{fill:url(#SVGID_1_);}
	.st1{fill:#562805;stroke:#000000;stroke-miterlimit:10;}
	.st2{fill:none;stroke:#000000;stroke-width:5;stroke-linecap:round;stroke-miterlimit:10;}
</style>
<linearGradient id="SVGID_1_" gradientUnits="userSpaceOnUse" x1="244.6928" y1="56.1905" x2="245.4321" y2="456.1009">
	<stop  offset="0" style="stop-color:#FF0000"/>
	<stop  offset="0.2892" style="stop-color:#B9003A"/>
	<stop  offset="0.9593" style="stop-color:#0B00C8"/>
	<stop  offset="1" style="stop-color:#0000D1"/>
</linearGradient>
<path class="st0" d="M244.8,472.9l-6.5-5c-52.5-40.8-90.1-81-118.3-126.5c-35.5-57.5-54.8-121.8-58.8-196.6l-0.2-4.6l3.2-3.3
	C116.4,83.4,150.9,54,241.8,26.8l3-0.9l3,0.9C338.8,54,373.3,83.4,425.4,136.9l3.2,3.3l-0.2,4.6c-4,74.8-23.2,139.1-58.8,196.6
	c-28.2,45.5-65.7,85.7-118.3,126.5L244.8,472.9z M239.7,191.5c9.8,155.5,5.2,254.7,5.2,254.7L239.7,191.5L239.7,191.5L239.7,191.5z"
	/>
<path class="st1" d="M244.8,497.7l-7.2-5.6c-58.3-45.3-100.1-89.9-131.4-140.5C66.8,287.7,45.4,216.3,41,133.2l-0.3-5.1l3.6-3.7
	c57.9-59.4,96.2-90.7,197.2-121l3.4-1l3.4,1c101,30.3,139.4,61.6,197.2,121l3.6,3.7l-0.3,5.1c-4.5,83.1-25.8,154.6-65.3,218.4
	c-31.3,50.6-73,95.3-131.4,140.5L244.8,497.7z M64.6,137c10.9,172.8,100.4,267.7,180.2,331c79.8-63.3,169.3-158.2,180.2-331
	c-49.1-50.3-83.8-80.9-180.2-110.2C148.4,56.1,113.8,86.7,64.6,137z"/>
<path d="M229,163.6l-38.8,30.8c-0.5,0.4-1.3,0.3-1.7-0.3l-8.7-12.9c-0.3-0.4-0.3-1,0-1.4l22.3-29.1c0.3-0.4,0.9-0.6,1.4-0.4
	l25.2,11.2C229.6,162,229.7,163,229,163.6z"/>
<path class="st2" d="M183.4,180.1c-14.2,16.3-27.9,10.4-42.1,45.9"/>
<path d="M158.5,235.5l-9.7,8.6c-4,0.4-12.4,1.1-15.2-0.8l-0.2-0.2c-3.3-2.7-3.5-7.6-0.8-10.9l4.2-5.2c2.7-5.2,7.8-4.2,11.1-1.5h0
	C151.1,228.2,161.2,232.3,158.5,235.5z"/>
<path d="M142.1,256.3c-0.2-0.2-0.5-0.6-0.6-0.8c-1.4-2.8,5.3-10.8,6.2-12.4l10.4-8.4c1.3-1.3,3.5-1.2,4.7,0.1l1.4,1.4
	c1.3,1.3,1.8,2.6,0.4,5.4c-1.9,3.9-3.6,5.1-16.8,14.5C146.3,257.4,144.4,258.3,142.1,256.3z"/>
<path d="M159,239.8c-0.1-0.2-14.1-16.2-14.2-16.5c-0.4-3.3,13.9-24.6,15.4-25.9l25.4-16.2c-2.2-6.3,64.5-17.8,88.9-1.1l-8,21.4
	c-39.9,17.6-47.1,23.1-78.7,32.9c-4.5,1.4-12,7.4-24.4,8.2C160.5,242.8,160.5,242.7,159,239.8z"/>
<path d="M215.4,221l-1.8,17.6c-0.1,0.7-0.7,1.1-1.3,0.8l-17.7-6.6c-0.8-0.3-0.9-1.4-0.1-1.8l19.6-10.9
	C214.6,219.7,215.5,220.2,215.4,221z"/>
<path d="M263.9,198.5l-6.5,19.6c-0.2,0.5-0.7,0.8-1.2,0.6l-18.7-5.9L263.9,198.5z"/>
<path d="M305.6,179.4l-1.5,11.6c-0.1,0.6-0.7,1-1.3,0.8l-32.5-10.2c-1.1-0.3-0.9-1.9,0.3-2l33.9-1.4
	C305.2,178.2,305.7,178.8,305.6,179.4z"/>
<path d="M312.8,220.4h-15.8c-0.4,0-0.8-0.2-1-0.6l-9.6-15.3c-0.6-1,0.4-2.2,1.5-1.8l24.3,9c0.4,0.2,0.7,0.5,0.8,0.9l1.1,6.3
	C314.1,219.7,313.6,220.4,312.8,220.4z"/>
<path d="M304.5,210.1c0,0-22.3-5.7-29.9-6.6c-8-1-19.4,3.7-18.4-1.5l3.6-12.5c1-5.2,6.8-9.1,12-8.1c0,0,25.5,6.8,35,10.7
	c4.9,2,30.8,23,29.8,28.2l-0.5,0.4C335,225.9,309.6,211.1,304.5,210.1z"/>
<path d="M332.6,257.9l-10.8-14.1c-0.1-0.2-0.2-0.4-0.2-0.7l-1.1-25.6c0-1.1,4.7-2.6,5.4-1.7l19.7,15.6c0.3,0.4-0.1,12.9-2.2,15.3
	l-8.9,11.1C334,258.5,333.1,258.5,332.6,257.9z"/>
<path d="M366.7,220.1l-14.5-10.2c-0.2-0.1-0.4-0.2-0.7-0.2l-25.6-0.1c-1.1,0-2.4,4.8-1.4,5.5l16.4,19c0.4,0.3,12.9-0.7,15.2-2.8
	l10.7-9.4C367.4,221.4,367.3,220.5,366.7,220.1z"/>
</svg>
