<?xml version="1.0" encoding="utf-8"?>
<!-- Generator: Adobe Illustrator 22.1.0, SVG Export Plug-In . SVG Version: 6.00 Build 0)  -->
<svg version="1.1" id="Layer_1" xmlns="http://www.w3.org/2000/svg" xmlns:xlink="http://www.w3.org/1999/xlink" x="0px" y="0px"
	 viewBox="0 0 500 500" style="enable-background:new 0 0 500 500;" xml:space="preserve">
<style type="text/css">
	.st0{fill:#563917;}
	.st1{fill:url(#SVGID_1_);}
	.st2{fill:none;stroke:#000000;stroke-miterlimit:10;}
	.st3{fill:none;stroke:#000000;stroke-linecap:round;stroke-miterlimit:10;}
	.st4{fill:none;stroke:#000000;stroke-width:2;stroke-linecap:round;stroke-miterlimit:10;}
</style>
<rect x="62.6" y="9" class="st0" width="379.3" height="55.8"/>
<path class="st0" d="M280.6,485.1c8-3.5,17-7.5,24.7-11.1c7.9-3.8,13.3-6.5,21.1-10.1c7-3.3,14.2-7.3,20.9-10.6
	c7-3.5,15.1-7.7,21.8-11.7c14-8.6,25.8-14.8,40.3-23.7c10.9-6.7,23.8-14.7,32.8-21.4V9.6h-7.7c-3.1,1.6-4.6,1.7-7.2,3.1
	c-5,2.7-10.6,2.4-16.4,5.3c-6.1,3-13.6,3.9-20.2,6.5c-5.9,2.4-12.1,4.7-18.3,6.3c-6.4,1.7-12.7,3.5-19.1,5.4
	c-12.3,3.6-25.6,5.6-38.3,7.6c-10.7,1.7-22.8,2.6-34.5,3.4c-3.6,0.2-4.2,0.7-7.4,0.3c-3-0.4-7.2,0.1-10.1,0.2
	c-5.9,0.3-14.9,0.3-20.8,0c-12.2-0.7-21.1-1.1-33.2-3.1c-6.3-1.1-12.8-1.4-19-2.7c-5.5-1.2-12-1.8-17.5-3.3
	c-12-3.2-24.9-5.9-37.1-9.3c-11.7-3.3-23.2-8.1-34.8-11.8c-5.5-1.8-10.9-2.1-16.8-4c-4.5-1.4-6.2-0.9-10.7-2.1c-1-0.3-4.3-0.7-5-1.2
	L62.6,9l0,387.3c0,0,0,0,0,0c13.3,9.4,30,19.9,43.1,27.7c13.4,7.9,25.3,15.1,38.6,22.1c27.9,14.6,50,25.8,78,38.2
	c3.5,1.5,8.3,3.8,12.5,5.4l17.6,7.2C252.6,496.6,280.2,485.2,280.6,485.1z"/>
<linearGradient id="SVGID_1_" gradientUnits="userSpaceOnUse" x1="-41.1447" y1="-59.3335" x2="405.3838" y2="-59.3335" gradientTransform="matrix(-1.346900e-10 1 -1 -1.346900e-10 192.9632 69.5444)">
	<stop  offset="4.317661e-02" style="stop-color:#FFD215"/>
	<stop  offset="0.1724" style="stop-color:#FBB03B"/>
	<stop  offset="0.8114" style="stop-color:#C1272D"/>
</linearGradient>
<path class="st1" d="M336.6,436.7c15.1-7.7,30.4-16.6,45.4-25.6c7.3-4.3,16.2-10.1,23.4-14.8c2.5-1.6,6.6-4.4,9.1-6
	c4.4-3,6.8-4.7,8.5-5.8l0-356l-12.1,0c-5.4,0-10.2-0.1-15.6,0c-11.8,0.2-16.2-0.1-27.5,0c-9.9,0.1-14.4-0.1-24.4,0
	c-11.7,0.1-24.4,0-35.9,0c-12.5,0-29.5,0-41.8,0.1c-12.2,0.1-15.4-0.1-27.6-0.1c-11.7,0-27.3,0-39.8,0.1c-13,0.1-26.5,0.2-39,0
	c-10.9-0.1-21.6,0-32.6,0c-11.2,0-20.7-0.1-36.5,0c-2,0-3.1-0.1-6.1,0l-2.4-0.1l0.6,356c3.1,2,8.1,5.2,11,7.9
	c4.3,3.9,9,4.7,13.2,8.7c1.7,1.6,4.9,2.4,6.6,4.2c2.9,0.7,6.8,3.5,9.8,6.1c0.6,0.7,4.2,2.1,4.7,2.9c1.3,1.7,4.6,1.8,6,3.6
	c2.8,1.7,1.2,0.6,4.7,2.7c1.3,0.8,3.1,1.8,5,2.9c3.1,1.8,2.8,1.7,4.2,2.4c0.7,0.3,2.3,1.3,2.9,1.6c1,0.4,3.6,1.6,4.2,2.3
	c6.4,3.7,4.7,2.5,10.2,5.4c3.4,1.8,6.5,3.3,9.9,5.1c1.1-0.4,3.5,1.9,4.7,2.3c3.5,1.4,1.1,0.7,4.8,2.3c0.7-0.1,2.9,1.9,3.7,1.8
	c3.2,1.5,3,1.8,5.7,2.7c0.7,0.2,1.8,1,2.5,1.2c2.9,1,3.1,1.4,5.7,2.7c15.8,6,22.7,11.5,38.2,16.6l12.3,5.2
	c15-6.1,31.6-13.1,43.4-18.5"/>
<line class="st2" x1="108" y1="461.4" x2="108" y2="461.4"/>
<g>
	<line class="st3" x1="441.9" y1="9.6" x2="441.9" y2="396.3"/>
	<g>
		<line class="st3" x1="62.6" y1="9.6" x2="62.6" y2="396.3"/>
		<path class="st2" d="M252.3,496.6"/>
		<path class="st2" d="M62.6,396.3"/>
		<path class="st3" d="M252.3,496.6"/>
		<path class="st3" d="M441.9,396.3"/>
	</g>
</g>
<g>
	<line class="st3" x1="423" y1="28.5" x2="423" y2="384.5"/>
	<g>
		<path class="st3" d="M423,28.5"/>
		<path class="st3" d="M81.6,28.5"/>
		<line class="st3" x1="81.6" y1="28.5" x2="81.6" y2="384.5"/>
		<path class="st3" d="M81.6,384.5c52.8,36.2,100,61.9,170.7,90.2"/>
		<path class="st3" d="M252.3,474.7"/>
		<path class="st3" d="M423,384.5"/>
	</g>
</g>
<line class="st2" x1="81.6" y1="28.5" x2="423" y2="28.5"/>
<path class="st3" d="M62.6,396.3c52.8,36.2,118.9,72.3,189.6,100.6"/>
<path class="st3" d="M423,384.5c-52.8,36.2-100,61.9-170.7,90.2"/>
<path class="st3" d="M441.9,396.3c-52.8,36.2-118.9,72.3-189.7,100.6"/>
<line class="st3" x1="62.6" y1="9.2" x2="441.9" y2="9.2"/>
<g>
	<g>
		<path d="M242.6,224.5l-22.7,7.1c-0.5,0.1-1-0.1-1.2-0.5l-10-18.5c-0.4-0.8,0.3-1.7,1.2-1.4l32.7,11.4
			C243.6,222.9,243.6,224.2,242.6,224.5z"/>
		<path d="M259.9,224.8l22.7,7.1c0.5,0.1,1-0.1,1.2-0.5l10-18.5c0.4-0.8-0.3-1.7-1.2-1.4l-32.7,11.4
			C259,223.2,259,224.5,259.9,224.8z"/>
		<line class="st4" x1="203.7" y1="209.3" x2="245.3" y2="223.3"/>
		<line class="st4" x1="300" y1="209.3" x2="258.4" y2="223.3"/>
		<line class="st4" x1="244" y1="223.8" x2="231.4" y2="259.3"/>
		<line class="st4" x1="259.9" y1="223.8" x2="272.4" y2="259.5"/>
		<path d="M252.1,256.7V275l-21-14.2c-1.3-0.9-0.2-4.6,1.3-3.9L252.1,256.7z"/>
		<line class="st4" x1="252.1" y1="269.1" x2="252.1" y2="287.6"/>
		<line class="st4" x1="251.9" y1="287.6" x2="235.4" y2="295.8"/>
		<line class="st4" x1="252.1" y1="287.6" x2="268.6" y2="295.8"/>
	</g>
	<polygon points="288,174.8 251.8,208.6 215.7,174.8 215.7,133.1 251.8,112.3 288,133.1 	"/>
	<polygon points="191.7,220.6 143.5,208.6 215.7,148.4 	"/>
	<polygon points="312,220.6 360.2,208.6 288,148.4 	"/>
	<path d="M355.9,185.6c-52,0-39.4,0-104,0s-65,0-104,0c0,0,39.4-73.3,104-73.3S355.9,185.6,355.9,185.6z"/>
	<path d="M191.7,220.6l-36.1,72.2c0,0-24.1-36.1-12-84.3L191.7,220.6z"/>
	<path d="M312,220.6l36.1,72.2c0,0,24.1-36.1,12-84.3L312,220.6z"/>
	<polygon points="203.5,328.4 167.8,304.6 167.8,245 191.6,221.1 	"/>
	<polygon points="299.6,330 336.5,305.5 336.5,244.1 311.9,219.5 	"/>
	<polygon points="312,280.8 288,268.8 312,220.6 	"/>
	<polygon points="191.7,280.8 215.7,268.8 191.7,220.6 	"/>
	<polygon points="191.6,320.5 230,346.1 191.7,244.7 	"/>
	<polygon points="239.8,377.1 256.6,330.3 203.7,292.8 	"/>
	<polygon points="263.9,377.1 247.1,330.3 300,292.8 	"/>
	<polygon points="314.3,320.5 275.9,346.1 312,244.7 	"/>
	<polygon points="300,353 251.8,389.1 203.7,353 203.7,328.9 300,328.9 	"/>
	<path d="M251.8,256.7V275l21-14.2c1.3-0.9,0.2-4.6-1.3-3.9L251.8,256.7z"/>
</g>
</svg>
