<?xml version="1.0" encoding="utf-8"?>
<!-- Generator: Adobe Illustrator 22.1.0, SVG Export Plug-In . SVG Version: 6.00 Build 0)  -->
<svg version="1.1" id="Layer_1" xmlns="http://www.w3.org/2000/svg" xmlns:xlink="http://www.w3.org/1999/xlink" x="0px" y="0px"
	 viewBox="0 0 500 500" style="enable-background:new 0 0 500 500;" xml:space="preserve">
<style type="text/css">
	.st0{fill:#281818;}
	.st1{fill:url(#SVGID_1_);}
	.st2{fill:none;stroke:#000000;stroke-linecap:round;stroke-miterlimit:10;}
	.st3{fill:none;stroke:#000000;stroke-miterlimit:10;}
</style>
<path class="st0" d="M292.7,456.6c15.8-13.7,26.8-21.7,42.2-36.9c7.5-7.4,12.4-11.5,19.2-19.3c6.4-7.4,15.2-17.3,20.8-25.3
	c11.1-15.7,19.2-30.1,26.1-47.9c7.3-18.9,12.1-36.3,15.5-56.5c8.1-48.4,5.3-26.2,10.3-115.2l1-74.8c-10.6,1-22.3,1-32.7,0.6
	c-15-0.6-42.6-5.1-58-11c-32.9-12.6-41.7-16.8-71.5-41C264.7,28.4,242.7,5,242,4l0,0c-0.1,2.7-25.6,27.2-28.4,29.2
	c-35.5,25.7-42.8,29.2-73.2,39.4c-29.7,10-55.1,10.1-85.4,9.3l1.7,93.1c1.6,27.9,2.8,55.7,9.3,95c3.6,21.4,6.6,35.9,15.3,56.6
	c4.7,11.2,7.8,19.6,14,29.5c6.3,9.9,11.9,19.5,19.5,28.6c7.4,8.9,21.3,24.3,29.2,31.6c10,9.3,34.4,30.8,45.1,39.1
	c18.6,14.5,33.4,27.5,52.3,41.5l24.9-19.6C273.1,470.9,285.6,462.7,292.7,456.6z"/>
<linearGradient id="SVGID_1_" gradientUnits="userSpaceOnUse" x1="241.575" y1="31.1913" x2="240.5474" y2="474.815">
	<stop  offset="3.480097e-03" style="stop-color:#000000"/>
	<stop  offset="0.1092" style="stop-color:#3A0000"/>
	<stop  offset="0.2171" style="stop-color:#6E0000"/>
	<stop  offset="0.3269" style="stop-color:#9A0000"/>
	<stop  offset="0.4366" style="stop-color:#BF0000"/>
	<stop  offset="0.5461" style="stop-color:#DB0000"/>
	<stop  offset="0.6555" style="stop-color:#EF0000"/>
	<stop  offset="0.7648" style="stop-color:#FB0000"/>
	<stop  offset="0.8739" style="stop-color:#FF0000"/>
</linearGradient>
<path class="st1" d="M286.2,438.2c14.2-12.3,24.8-19.7,38.6-33.3c6.8-6.6,11.4-10.6,17.5-17.6c5.8-6.7,13.3-15.1,18.4-22.3
	c10-14.2,17.4-27.1,23.6-43.2c6.6-17,10.2-27.1,13.6-48.5c7.1-44.5,5.9-25.7,10.4-105.8l0.9-67.3c-9.5,0.9-20,0.9-29.4,0.5
	c-13.5-0.5-38.3-4.6-52.2-9.9c-29.6-11.3-37.5-15.1-64.3-36.9c-1-0.8-20.8-21.8-21.5-22.7l0,0c-0.1,2.4-27.4,27.4-30,29.2
	c-31.4,22-33,22.4-61.6,31.7c-26.6,8.6-49.5,9.9-76.7,9.2l1.5,83.8c1.4,25.1,2.5,50.1,8.4,85.5c3.2,19.2,6,32.3,13.8,50.9
	c4.2,10,7,17.7,12.6,26.6c5.6,8.9,10.7,17.6,17.5,25.7c6.6,8,19.2,21.8,26.3,28.5c9,8.4,31,27.8,40.5,35.2
	c16.8,13.1,30.5,23.8,46.5,37.4l21.8-17.9C268.8,451.2,279.8,443.7,286.2,438.2z"/>
<path class="st2" d="M489.9,375.7"/>
<path class="st2" d="M489.9-15.5"/>
<path class="st2" d="M241.4,497"/>
<path class="st2" d="M53.9,4"/>
<path class="st3" d="M241.4,494.4"/>
<path class="st3" d="M53.9,395.2"/>
<path class="st2" d="M241.4,494.4"/>
<path class="st2" d="M429,395.2"/>
<path class="st2" d="M241.4,497"/>
<path class="st2" d="M429,4"/>
<path class="st2" d="M85.9,210c34.8-42.6,62.8-49.9,121.7-43.2"/>
<path class="st2" d="M85.9,210c20.3-8.4,40.2-4.3,47.7,25.1"/>
<path class="st2" d="M133.6,235.1c17.8-7.5,35.2-3.6,41.8,22.5"/>
<path class="st2" d="M175.6,257.6c26-21.4,57.6-2.2,49.8,30.5"/>
<path class="st2" d="M207.6,166.8c-35.8,7.9-42.6,56.5,10.6,59.5"/>
<path class="st2" d="M225.5,288.1c-9.9,41.2,39.1,65.4,67.8,25.7"/>
<path class="st2" d="M218.2,226.4c20.6-0.2-2.7-34.1,20.4-44.5"/>
<path class="st2" d="M227.4,179.2c6.1-1.6,8-0.4,11.2,2.6"/>
<path class="st2" d="M227.4,179.2c5.7-2.5,9.5-2.3,13.2,0.1"/>
<path class="st2" d="M227.4,171.6c6.1-1.6,11.4,4.3,13.5,7.5"/>
<path class="st2" d="M227.4,171.6c5.7-2.5,14.8,1,17.7,4.1"/>
<path class="st2" d="M238.6,167.8c6.1,1.5,5.3,4.4,6.7,8.6"/>
<path class="st2" d="M238.6,167.8c6.2,0.5,15.8,4.8,21.1,24.5"/>
<path class="st2" d="M259.7,192.5c0.1,1-1.1,3.6-2.5,3.6"/>
<line class="st2" x1="259.7" y1="192.6" x2="259.7" y2="192.6"/>
<path class="st2" d="M257.3,196.1c-6.6-8.7-11.2-3.7-13.5-8.6"/>
<path class="st2" d="M251.4,259.4c11.7-38.7-30.7-51.2-7.6-71.9"/>
<path class="st2" d="M340.9,235.1L340.9,235.1c-17.8-7.5-35.6-3.6-42.1,22.5l0,0c-40.1-18.7-61.6,8.2-66.5,39.5"/>
<path class="st2" d="M389.3,209.6c-20.3-8.4-41.3-4.1-48.4,25.4"/>
<path class="st2" d="M389.6,209.6c-34.8-42.6-62.8-49.9-121.7-43.2"/>
<path class="st2" d="M267.9,166.4c34.4,7.6,33.5,57.7-18.2,60.6"/>
<path class="st2" d="M232.3,297.1c-6,31.3,31.9,46.4,60.1,17.2"/>
<path class="st2" d="M233,296.8"/>
<path class="st2" d="M233,298"/>
<path class="st2" d="M281.8,314c10.4-6.1,8-5.7,14.2-10.2"/>
<path class="st2" d="M296,303.8c-0.6,5.8-0.6,7.2-3.1,10.4"/>
<path class="st2" d="M281.8,314c0,0,1.6,0.7,10,0.3"/>
<path class="st2" d="M54.9,81.9c0,0,113.3,14.5,187-77.8"/>
<path class="st2" d="M54.9,81.9C54.9,354.3,85.3,374,241.4,497"/>
<path class="st2" d="M427.9,80.7c0,272.5-30.4,293.3-186.5,416.2"/>
<path class="st2" d="M427.9,80.7c0,0-112.3,15.7-185.9-76.7"/>
<path class="st2" d="M73,100.6c0,0,102,13.1,168.3-70.1"/>
<path class="st2" d="M240.9,474.1"/>
<path class="st2" d="M72.1,30.5"/>
<path class="st3" d="M240.9,471.8"/>
<path class="st3" d="M72.1,382.6"/>
<path class="st2" d="M240.9,471.8"/>
<path class="st2" d="M409.7,382.6"/>
<path class="st2" d="M240.9,474.1"/>
<path class="st2" d="M409.7,30.5"/>
<path class="st2" d="M73,100.6c0,245.2,27.4,262.9,167.8,373.6"/>
<path class="st2" d="M408.7,99.5c0,245.2-27.4,264-167.8,374.6"/>
<path class="st2" d="M408.7,99.5c0,0-101,14.1-167.3-69"/>
<polygon points="248.4,171.5 245,176.6 242.7,169.3 "/>
<polygon points="238.1,171.4 237.9,176.4 233,171.1 "/>
<polygon points="243.4,173.8 244.5,182 235.4,171.7 "/>
<polygon points="243,178.1 243.5,187.4 233.8,177.7 "/>
<polygon points="256,180.9 245.6,188.9 238.2,179 247.9,171.5 "/>
<polygon points="255.1,181 259.7,192.9 245.6,188.9 "/>
<polygon points="260,192.1 257.7,196 252.1,190.5 "/>
<polygon points="190.6,174.9 180.9,187.1 127.7,173.9 148.2,166.4 176.5,164.2 204.6,166.9 "/>
<polygon points="284.7,175.3 291.5,188.1 347.5,173.5 327,166 298.7,163.8 270.6,166.5 "/>
<polygon points="144.9,177.4 139.4,197.7 85.9,209.8 100.8,193.9 118.3,179.3 130.8,172.6 "/>
<rect x="136.1" y="181" transform="matrix(0.9736 0.2281 -0.2281 0.9736 51.2501 -30.164)" width="40" height="51.4"/>
<polygon points="133.9,234.6 131.2,227.1 148.2,231.2 "/>
<polygon points="120.3,210.9 103.8,204.9 139.6,196.8 "/>
<polygon points="120.3,210.9 131.6,226.4 137.8,198.1 "/>
<polygon points="245,185.3 236.7,197.1 229.7,189.4 237.4,181.8 "/>
<polygon points="236.7,196.7 233.5,216.6 230.2,189.9 "/>
<polygon points="233.8,216.8 227.2,202.1 230.1,188.5 "/>
<polygon points="239.6,228.7 227.6,217.5 227.9,203.1 "/>
<polygon points="243.2,218 232.4,216.4 235.7,199.8 "/>
<polygon points="331.1,176.9 336.8,199.1 389.3,208.4 375.2,193.4 357.7,178.8 345.2,172.1 "/>
<polygon points="297.5,237.8 344.1,226.6 332.3,176.3 290.6,186 "/>
<polygon points="340.7,234.6 343.4,226.6 322.7,231.1 "/>
<polygon points="354.3,210.4 372.9,204.3 335,196.2 "/>
<polygon points="355.7,209.2 343.1,225.3 336.8,197.6 "/>
<polygon points="305.5,241.5 317.7,231.9 297,233.8 "/>
<polygon points="296.3,220.8 292.2,194.8 284.8,218.3 "/>
<polygon points="306,241.9 289.6,207.5 270.2,225.3 "/>
<polygon points="298.2,257.3 305.9,240.6 275.6,220.4 251.1,232.3 "/>
<polygon points="251.4,233 267.7,224.2 249.1,227.3 "/>
<polygon points="254.1,244.3 295.4,255.4 251.1,231.8 "/>
<polygon points="249.6,259.9 274,244.9 254.5,239.3 "/>
<polygon points="256.4,256 275.9,247.2 263.6,246.1 "/>
<polygon points="261.6,251.7 282.5,251.6 273.3,245.6 "/>
<polygon points="189.9,234.9 165.4,238.9 178.8,196.8 "/>
<polygon points="165.6,238.2 159.8,234.4 169.2,230.2 "/>
<polygon points="212.4,240.2 184.2,252.1 182.8,210 "/>
<polygon points="184.4,234.1 184.2,252.1 166.2,238.2 "/>
<polygon points="189.9,247.5 179,254.4 166.2,238.2 "/>
<polygon points="187.6,250.2 175.6,257.6 166.9,237.6 "/>
<polygon points="236.7,235.7 193.1,249.1 190.6,219.5 "/>
<polygon points="252.7,253.9 195.4,248.4 249.6,229.3 "/>
<polygon points="254.4,240.1 252.2,252.9 249.7,229.7 "/>
<polygon points="243.1,216.4 226.7,313.5 227.5,216 "/>
<polyline points="247.7,247.3 226.2,311 235.5,249.6 "/>
<polyline points="254.1,253.4 237.5,277.5 243.3,238.8 "/>
<polygon points="252.1,231.4 237.6,235.7 242.2,215.5 "/>
<polygon points="237,235.9 220.7,232.8 227,220 "/>
<polygon points="228.2,229.7 215.9,233.4 206.8,225.2 "/>
<polygon points="226.2,225.1 221.9,233.7 212.3,227.1 "/>
<polygon points="229.7,249.2 227,273.9 219.2,247.7 "/>
<polygon points="218.7,256.4 207,249.1 222.7,250.5 "/>
<polygon points="225.8,265.5 218.1,255.8 220.8,251.6 "/>
<polygon points="228.8,296.4 227.3,282.8 223.7,297.1 "/>
<polygon points="229.1,293.7 223.8,297.5 226.6,311.4 "/>
<polygon points="233.6,289.1 228.4,292.9 231.6,307.4 "/>
<polygon points="231.7,309.4 230,298 226.2,311.6 "/>
<polygon points="293.6,314 295.9,304.1 281.8,314 "/>
<polygon points="233.7,323.5 231.6,307.4 225.9,311.7 "/>
<polygon points="242.5,330.4 231.6,309.6 233.4,323.4 "/>
<polyline points="253.2,333.3 237,320.1 241.9,330.2 "/>
<polygon points="266.6,333.6 244.9,326.3 251.1,333.7 "/>
<polygon points="275.4,327.2 257,330.4 262.3,334.2 "/>
<polygon points="289,319 263.7,333 274.7,330.3 "/>
</svg>
