<?xml version="1.0" encoding="utf-8"?>
<!-- Generator: Adobe Illustrator 22.1.0, SVG Export Plug-In . SVG Version: 6.00 Build 0)  -->
<svg version="1.1" id="Layer_1" xmlns="http://www.w3.org/2000/svg" xmlns:xlink="http://www.w3.org/1999/xlink" x="0px" y="0px"
	 viewBox="0 0 500 500" style="enable-background:new 0 0 500 500;" xml:space="preserve">
<style type="text/css">
	.st0{fill:#231E0B;stroke:#000000;stroke-miterlimit:10;}
	.st1{fill:none;stroke:#000000;stroke-miterlimit:10;}
	.st2{fill:url(#SVGID_1_);stroke:#000000;stroke-miterlimit:10;}
	.st3{stroke:#000000;stroke-miterlimit:10;}
</style>
<path class="st0" d="M412.7,417.9L245,495.3c-0.5,0.2-1.1,0.2-1.7,0L72.1,417.9c-0.7-0.3-1.1-1-1.2-1.8l-12.5-361
	c0-0.9,0.6-1.8,1.5-2L243.6,3.3c0.3-0.1,0.7-0.1,1,0l185.8,50c0.9,0.2,1.5,1.1,1.5,2l-18.1,360.9
	C413.8,416.9,413.3,417.6,412.7,417.9z"/>
<path class="st1" d="M429.4,53.2"/>
<path class="st1" d="M60,53.4"/>
<path class="st1" d="M413.8,417.6"/>
<path class="st1" d="M71,417.6"/>
<linearGradient id="SVGID_1_" gradientUnits="userSpaceOnUse" x1="243.9763" y1="32.8129" x2="243.4371" y2="470.9629">
	<stop  offset="0" style="stop-color:#F7931E"/>
	<stop  offset="0.931" style="stop-color:#EE2424"/>
	<stop  offset="1" style="stop-color:#ED1C24"/>
</linearGradient>
<path class="st2" d="M392.1,404.6l-147.8,68.3c-0.5,0.2-1.1,0.2-1.7,0L91.4,404.6c-0.7-0.3-1.1-1-1.2-1.7L77.8,76.6
	c0-0.9,0.6-1.8,1.5-2l163.7-44.5c0.3-0.1,0.7-0.1,1,0l164.6,44.3c0.9,0.2,1.5,1.1,1.5,2l-16.8,326.5
	C393.2,403.7,392.8,404.3,392.1,404.6z"/>
<g>
	<circle class="st3" cx="235.8" cy="240.6" r="49.6"/>
	
		<rect x="238.6" y="143.5" transform="matrix(0.9152 -0.4031 0.4031 0.9152 -80.3618 117.8996)" class="st3" width="2.7" height="212.7"/>
	<path d="M250.2,164.3l2.1,25c0.1,0.7-0.5,1.2-1.2,1.1l-12.6-2.2c-0.6-0.1-1-0.8-0.7-1.4l10.5-22.8
		C248.7,163,250.1,163.2,250.2,164.3z"/>
	<path d="M221.3,317l-2.1-25c-0.1-0.7,0.5-1.2,1.2-1.1l12.6,2.2c0.6,0.1,1,0.8,0.7,1.4l-10.5,22.8C222.8,318.3,221.4,318,221.3,317z
		"/>
	<path d="M159.4,226.2l25-2.1c0.7-0.1,1.2,0.5,1.1,1.2l-2.2,12.6c-0.1,0.6-0.8,1-1.4,0.7l-22.8-10.5
		C158.1,227.7,158.4,226.3,159.4,226.2z"/>
	<path d="M312.1,255.1l-25,2.1c-0.7,0.1-1.2-0.5-1.1-1.2l2.2-12.6c0.1-0.6,0.8-1,1.4-0.7l22.8,10.5
		C313.4,253.6,313.2,255,312.1,255.1z"/>
	<path d="M192,176.4l19.2,16.2c0.5,0.4,0.5,1.2-0.1,1.6l-10.5,7.3c-0.5,0.4-1.3,0.1-1.5-0.5l-8.7-23.6
		C190,176.6,191.2,175.7,192,176.4z"/>
	<path d="M279.5,304.9l-19.2-16.2c-0.5-0.4-0.5-1.2,0.1-1.6l10.5-7.3c0.5-0.4,1.3-0.1,1.5,0.5l8.7,23.6
		C281.5,304.7,280.3,305.5,279.5,304.9z"/>
	<path d="M171.5,284.4l16.2-19.2c0.4-0.5,1.2-0.5,1.6,0.1l7.3,10.5c0.4,0.5,0.1,1.3-0.5,1.5l-23.6,8.7
		C171.7,286.4,170.9,285.2,171.5,284.4z"/>
	<path d="M300,196.8L283.7,216c-0.4,0.5-1.2,0.5-1.6-0.1l-7.3-10.5c-0.4-0.5-0.1-1.3,0.5-1.5l23.6-8.7
		C299.8,194.9,300.6,196.1,300,196.8z"/>
	<path d="M219.9,164.5l11.5,22.3c0.3,0.6,0,1.3-0.7,1.4l-12.5,2.8c-0.6,0.1-1.2-0.4-1.2-1l1-25.1C218,163.9,219.4,163.6,219.9,164.5
		z"/>
	<path d="M251.6,316.7l-11.5-22.3c-0.3-0.6,0-1.3,0.7-1.4l12.5-2.8c0.6-0.1,1.2,0.4,1.2,1l-1,25.1
		C253.5,317.3,252.1,317.6,251.6,316.7z"/>
	<path d="M159.7,256.5L182,245c0.6-0.3,1.3,0,1.4,0.7l2.8,12.5c0.1,0.6-0.4,1.2-1,1.2l-25.1-1C159.1,258.4,158.8,257,159.7,256.5z"
		/>
	<path d="M311.8,224.8l-22.3,11.5c-0.6,0.3-1.3,0-1.4-0.7l-2.8-12.5c-0.1-0.6,0.4-1.2,1-1.2l25.1,1
		C312.5,222.9,312.8,224.3,311.8,224.8z"/>
	<path d="M170.7,198.1l23.9,7.7c0.6,0.2,0.9,0.9,0.5,1.5l-6.9,10.8c-0.4,0.6-1.1,0.6-1.6,0.1l-17.1-18.4
		C169,198.9,169.8,197.7,170.7,198.1z"/>
	<path d="M300.8,283.2l-23.9-7.7c-0.6-0.2-0.9-0.9-0.5-1.5l6.9-10.8c0.4-0.6,1.1-0.6,1.6-0.1l17.1,18.4
		C302.5,282.3,301.8,283.5,300.8,283.2z"/>
	<path d="M193.2,305.7l7.7-23.9c0.2-0.6,0.9-0.9,1.5-0.5l10.8,6.9c0.6,0.4,0.6,1.1,0.1,1.6l-18.4,17.1
		C194.1,307.4,192.9,306.6,193.2,305.7z"/>
	<path d="M278.3,175.6l-7.7,23.9c-0.2,0.6-0.9,0.9-1.5,0.5l-10.8-6.9c-0.6-0.4-0.6-1.1-0.1-1.6l18.4-17.1
		C277.5,173.9,278.7,174.6,278.3,175.6z"/>
	<path d="M183.7,119.3l23.8,30.6c0.4,0.5,0.2,1.3-0.4,1.5l-18.1,7.7c-0.6,0.3-1.3-0.1-1.4-0.8l-5.7-38.4
		C181.8,119.1,183.1,118.5,183.7,119.3z"/>
</g>
</svg>
