<?xml version="1.0" encoding="utf-8"?>
<!-- Generator: Adobe Illustrator 22.1.0, SVG Export Plug-In . SVG Version: 6.00 Build 0)  -->
<svg version="1.1" id="Layer_1" xmlns="http://www.w3.org/2000/svg" xmlns:xlink="http://www.w3.org/1999/xlink" x="0px" y="0px"
	 viewBox="0 0 500 500" style="enable-background:new 0 0 500 500;" xml:space="preserve">
<style type="text/css">
	.st0{fill:url(#SVGID_1_);}
	.st1{fill:#6D6864;stroke:#000000;stroke-miterlimit:10;}
	.st2{stroke:#000000;stroke-linecap:round;stroke-miterlimit:10;}
	.st3{fill:none;stroke:#000000;stroke-width:2;stroke-linecap:round;stroke-miterlimit:10;}
	.st4{fill:none;stroke:#000000;stroke-width:4;stroke-linecap:round;stroke-miterlimit:10;}
</style>
<linearGradient id="SVGID_1_" gradientUnits="userSpaceOnUse" x1="249.8309" y1="446.0924" x2="250.5702" y2="46.182" gradientTransform="matrix(1 0 0 -1 0 500)">
	<stop  offset="0" style="stop-color:#B0D1FF"/>
	<stop  offset="0.4121" style="stop-color:#6A9AD8"/>
	<stop  offset="1" style="stop-color:#00469C"/>
</linearGradient>
<path class="st0" d="M250,473.4l-6.4-5c-52.5-40.7-90.1-81-118.3-126.5c-35.6-57.5-54.8-121.8-58.7-196.6l-0.2-4.6l3.2-3.3
	C121.5,84,156,54.5,246.9,27.3l3-0.9l3,0.9C344,54.5,378.5,83.9,430.5,137.5l3.2,3.3l-0.2,4.6c-4,74.8-23.3,139.1-58.7,196.6
	c-28.2,45.5-65.8,85.8-118.3,126.5L250,473.4z M244.8,192c9.8,155.5,5.1,254.6,5.1,254.6L244.8,192L244.8,192L244.8,192z"/>
<path class="st1" d="M250,498.1l-7.1-5.6c-58.4-45.3-100-90-131.4-140.5c-39.6-63.9-60.8-135.3-65.3-218.5l-0.2-5.1l3.6-3.6
	c57.7-59.3,96.1-90.7,197-121l3.4-1.1l3.4,1.1c101,30.3,139.4,61.7,197.2,121.1l3.6,3.6l-0.2,5.1c-4.4,83.1-25.9,154.6-65.3,218.5
	c-31.2,50.5-73,95.2-131.4,140.5L250,498.1z M69.8,137.5c10.9,172.8,100.4,267.7,180.2,331c79.8-63.3,169.3-158.2,180.2-331
	C381,87.2,346.4,56.6,250,27.3C153.6,56.6,118.9,87.2,69.8,137.5z"/>
<g>
	<path class="st2" d="M241.9,202.8c-3.6,0.9-12.5,1.5-22.6,12.3c-5.1,5.5-13.8,17.7-4.1,32.4c0,0,3.3-5.6,7-7.6
		c10.4-5.6,15-2.6,20-1.3c16,4,17.3,2.1,17.3,2.1c6.1-3.7,0.7-9.7-1.1-17l0,0C256.8,216.3,258.2,198.7,241.9,202.8z"/>
	<path d="M229.9,152.7c13-14.6,59.2-50.9,59.2-50.9c21.6,5.4,1.6,21.2-7,41.2c-3.6,8.3-10.3,14.2-12.5,30.2
		c-0.9,6.6,20.2,24.8,14.3,27.6l-19.2,1.8c-6,2.8-19.8,8.7-22.5,2.6c0,0,4.8-24.6-23.1-29.6C212.5,174.3,220.2,163.6,229.9,152.7z"
		/>
	<path d="M262.3,290.9c18.4,6.8,76.3,17.1,76.3,17.1c16.5-14.9-8.4-19.4-25.5-33c-7-5.6-15.8-7.7-25.3-20.7
		c-3.9-5.4,6.2-31.5-0.4-31.1l-17.7,7.5c-6.6,0.4-21.4,1.6-21.1,8.3c0,0,15.8,19.4-6.4,37C236.9,280,248.6,285.9,262.3,290.9z"/>
	<path d="M367.7,178.4c-26.7,13.5-22.7,4.6-92.3,12.2c-7.5,0.8-29.1,11.4-27.1,18.6l6.4,26.2c1.9,7.3,24.5,0.4,31.7-1.6
		c0,0,27.1-11.2,35.8-15.9c17.9-9.5,17.3-12.5,36.9-14c21.9-1.8,19.1-5.4,17.7-11.5C372.4,174.2,369.1,177.7,367.7,178.4z"/>
	<path d="M298.2,331.1c0,0-148,26.1-161-94c-12.4-114.3,109.8-134.3,109.8-134.3s-78.3,41.5-60.3,126.7
		C208.1,330.8,298.2,331.1,298.2,331.1z"/>
	<path class="st3" d="M246.2,103.2c-124.6,74-38.6,234.3,55.5,227"/>
	<path class="st3" d="M246.7,102.8c-171.9,29-138.1,274.2,55,227.4"/>
	<path class="st4" d="M151.9,218.6c-6.4,36.9-1.1,125,132.3,114.2"/>
	<path class="st4" d="M191.1,248.3c3.5,21.1,20.4,44.7,47.5,63.8"/>
	<path class="st4" d="M226,110.3c-21.1,3.9-44.3,21.1-63.1,48.4"/>
</g>
</svg>
