<?xml version="1.0" encoding="utf-8"?>
<!-- Generator: Adobe Illustrator 22.1.0, SVG Export Plug-In . SVG Version: 6.00 Build 0)  -->
<svg version="1.1" id="Layer_1" xmlns="http://www.w3.org/2000/svg" xmlns:xlink="http://www.w3.org/1999/xlink" x="0px" y="0px"
	 viewBox="0 0 500 500" style="enable-background:new 0 0 500 500;" xml:space="preserve">
<style type="text/css">
	.st0{fill:#2D2202;}
	.st1{fill:url(#SVGID_1_);}
	.st2{fill:none;stroke:#000000;stroke-miterlimit:10;}
	.st3{fill:none;stroke:#000000;stroke-linecap:round;stroke-miterlimit:10;}
</style>
<path class="st0" d="M279.7,489.3c8.6-2.5,16.5-4.9,24.3-7.8c7.9-2.9,14.6-5.3,22.3-8.9c7-3.2,15.2-7,21.8-10.3
	c6.9-3.5,12.8-6.5,19.4-10.6c13.9-8.5,28-16.8,40.6-27.4c9.2-7.7,22.5-19.8,30-27.8V4l-7.6,4.1c-3.1,1.6-5.4,2.7-7.9,4.1
	c-5,2.7-10,4.5-15.7,7.3c-6,3-13.2,5.4-19.8,8c-5.9,2.3-12,4.6-18.2,6.2c-6.3,1.6-12.6,3.5-18.9,5.4c-12.2,3.6-25.4,5.5-38,7.5
	c-10.6,1.7-22.6,2.6-34.3,3.4c-3.6,0.2-4.2,0.7-7.4,0.3c-2.9-0.4-7.1,0.1-10.1,0.2c-5.8,0.3-14.8,0.3-20.6,0
	c-12.1-0.7-20.9-1.1-32.9-3.1c-6.3-1-12.7-1.4-18.9-2.7c-5.4-1.2-11.9-1.8-17.4-3.2c-11.9-3.2-24.7-5.8-36.8-9.2
	c-11.6-3.3-23-8-34.5-11.7C93.7,19,87.9,16.5,82.8,14c-4.2-2-7.9-4.5-12.3-5.6c-1-0.3-2.7-1.1-3.3-1.6L61.8,4v392.5l0,0
	c10.4,11.4,24.7,24.1,36.9,33c12.1,8.9,24.6,16.7,37.5,24.3c26.4,15.7,53,25.3,81.7,34.8c3.2,1.1,3.2,1.1,7.3,2l24.2,5.4
	C249.7,495.7,279.3,489.4,279.7,489.3z"/>
<linearGradient id="SVGID_1_" gradientUnits="userSpaceOnUse" x1="-38.0443" y1="156.9868" x2="404.7557" y2="156.9868" gradientTransform="matrix(-1.346900e-10 1 1 1.346900e-10 92.9632 69.5444)">
	<stop  offset="5.540285e-03" style="stop-color:#FFFFFF"/>
	<stop  offset="6.177425e-02" style="stop-color:#FEFCDC"/>
	<stop  offset="9.230126e-02" style="stop-color:#FDF9B2"/>
	<stop  offset="0.3462" style="stop-color:#FBF371"/>
	<stop  offset="0.412" style="stop-color:#FBF65F"/>
	<stop  offset="0.5197" style="stop-color:#FAF138"/>
	<stop  offset="0.6708" style="stop-color:#F9F01E"/>
	<stop  offset="0.8107" style="stop-color:#F9EF16"/>
	<stop  offset="1" style="stop-color:#F9EF00"/>
</linearGradient>
<path class="st1" d="M393.1,44.7c-10.2,4.8-20.5,8.7-31.2,12.1c-9.3,2.9-13.5,4.7-23.2,6.7c-11.2,2.3-25.4,5.9-36.5,6.9
	c-12.4,1.1-26.4,2.8-38.5,2.9s-24.6,0.2-36.6-1.1c-12.1-1.3-27.2-3.4-39.3-5.1c-12.7-1.9-24.2-5.6-36.3-8.3
	c-10.8-2.4-23.6-7.3-33.9-11s-19.3-7.6-30.4-12.9c-1.8-0.9-3.1-1.2-4.4-2.2l-2.2-1.1l0.6,353.2c3.1,2,6,7.2,8.9,9.9
	c4.2,3.9,8.2,7.7,12.4,11.6c1.7,1.6,4.1,2.9,5.8,4.6c2.9,0.7,6.3,4.1,9.2,6.6c0.6,0.7,2.5,1.1,3.1,1.8c1.3,1.7,2.8,1.6,4.2,3.4
	c2.7,1.6,3.2,0.9,6,3.4c1.1,1,2.7,1.3,3.4,2.6c1.3-0.2,1.9,0.9,3.3,1.6c0.7,0.3,2.2,1.3,2.8,1.7c1,0.4,3.9,2,4.5,2.7
	c5.1,4,6.8,3.8,12.2,6.7c3.3,1.8,7.8,3.9,11.2,5.7c1.1-0.4,2.5,1.3,3.6,1.7c3.4,1.4,1.9,0.9,5.5,2.5c0.7-0.1,1.5,1.3,2.2,1.2
	c3,0.6,3.2,1.6,5.9,2.5c0.7,0.2,1.5,0.6,2.2,0.8c2.9,1,4.7,1.7,7.4,2.9c15.6,5.2,27.1,10.3,43.3,13.1l11.7,2.5
	c15.5-3.3,32.3-7.5,44.7-11.8c16.4-5.7,25.4-9.3,46.8-20.3c15-7.7,29.2-16.7,42.8-26.5c6.8-4.9,12.6-9.7,18.9-15.1
	c2.2-1.9,7-5.3,8.4-7.8c1.8-3.2,5.9-7,7.7-8.1V31.5l-11.5,6.1C403.1,40.5,398,42.4,393.1,44.7z"/>
<line class="st2" x1="106.9" y1="461.1" x2="106.9" y2="461.1"/>
<g>
	<line class="st3" x1="438.2" y1="4" x2="438.2" y2="396.5"/>
	<g>
		<path class="st3" d="M61.8,4c0,0,188.2,104.7,376.3,0"/>
		<line class="st3" x1="61.8" y1="4" x2="61.8" y2="396.5"/>
		<path class="st2" d="M61.8,396.5C94.9,434.2,171.6,482.6,250,496"/>
		<path class="st3" d="M438.2,396.5C405.1,434.2,328.4,482.6,250,496"/>
	</g>
</g>
<g>
	<line class="st3" x1="419.3" y1="31.6" x2="419.3" y2="384.8"/>
	<g>
		<path class="st3" d="M80.7,31.6c0,0,169.3,94.3,338.7,0"/>
		<line class="st3" x1="80.7" y1="31.6" x2="80.7" y2="384.8"/>
		<path class="st2" d="M80.7,384.8c29.8,33.9,98.8,77.5,169.3,89.5"/>
		<path class="st3" d="M419.3,384.8c-29.8,33.9-98.8,77.5-169.3,89.5"/>
	</g>
</g>
<path d="M220.7,186.2L190,198.3c0,0-2.5-10.1-10.1-15.2c-3.8-2.6-15.3-3.6-22-5.4c-3.8-1,13.6-5,14.9-6c8.5-6.7,14.9-9.2,21-8.9
	C215.1,163.6,220.7,186.2,220.7,186.2z"/>
<path d="M292.6,260.3l-45.3,10.2c0,0-22.1-5.4-44-34.5c-10.5-13.9-13.4-39.5-13.4-39.5l30.1-12.2c0,0,31.4,17,50.6,41.7
	C276.7,234,292.6,260.3,292.6,260.3z"/>
<path d="M282.4,289.9c-0.4,1.2-1.4,1.5-2.7,1.5c-5-0.1-14.6-8.2-18.8-10.9c-3.5-2.3-15.8-11.1-15.8-11.1l32.9-5.9
	c0,0-1.8,8.8-1.1,11.7C277.9,278.6,283.6,286.6,282.4,289.9z"/>
<path d="M282.4,289.9c-0.4,1.2-1.4,1.5-2.7,1.5c-5-0.1-14.6-8.2-18.8-10.9c-3.5-2.3-15.8-11.1-15.8-11.1l32.9-5.9
	c0,0-1.8,8.8-1.1,11.7C277.9,278.6,283.6,286.6,282.4,289.9z"/>
<path d="M346.7,321c-0.4,1.2-2,1.1-6.6-0.9c-3.3-1.5,1,9-3.2,6.2c-3.5-2.3-67.4-59.3-67.4-59.3s21.3-7.2,18.6-12.1
	c-3.8-6.9,18.9,18.5,28,29.2C321.3,290.3,347.9,317.7,346.7,321z"/>
<path d="M233.8,287.9l6.2,0.2c1.5,0.3,1.2,2.5-0.3,2.5l-24.9-0.2c-1.5,0-1.7-2.2-0.2-2.5l11.3-0.5c0.2,0,0.5-0.2,0.7-0.4l17.9-18.5
	c0.3-0.4,0.9-0.5,1.3-0.3l0.7,0.2c0.8,0.3,1.1,1.3,0.5,2l-13.9,15.3C232.5,286.5,232.9,287.7,233.8,287.9z"/>
<path d="M231.8,288.4c-0.8-1-1.4-2.2-1.6-3.4h-0.1c-0.2,0.1-0.5,0.2-0.7,0.1l-10.9-2.9c-1.5-0.2-1.9,2-0.5,2.4l14.7,4.6
	C232.3,289,232,288.7,231.8,288.4z"/>
<path d="M257.6,266.4c0.6-0.6,0.3-1.6-0.5-1.9l-0.6-0.2c-0.4-0.2-0.9-0.1-1.3,0.3l-17,17.6c-0.2,0.2-0.4,0.3-0.6,0.3h-4.2
	c-0.2,1-0.5,1.9-1,2.8h18c1.4,0,1.6-2,0.2-2.3h-5.9c-0.9-0.2-1.2-1.3-0.6-1.9L257.6,266.4z"/>
<path d="M242.8,284.2c-0.8-0.9-1.2-2-1.5-3.1h-0.1c-0.2,0.1-0.4,0.2-0.7,0.1l-9.8-2.6c-1.3-0.1-1.7,1.8-0.5,2.2l13.2,4.1
	C243.2,284.7,243,284.5,242.8,284.2z"/>
<path d="M254.3,275l-60.2,26.1c-0.8,0.3-1.1,1.2-0.8,2l0.6,1.5c0.3,0.8,1.2,1.1,2,0.8l60.2-26.1c0.8-0.3,1.1-1.2,0.8-2l-0.6-1.5
	C255.9,275,255,274.7,254.3,275z"/>
</svg>
